<?xml version="1.0" encoding="UTF-8" standalone="no"?>
<svg
   id="Ebene_2"
   viewBox="0 0 99.999997 99.999999"
   version="1.1"
   sodipodi:docname="favicon.svg"
   width="100"
   height="100"
   inkscape:version="1.4 (e7c3feb100, 2024-10-09)"
   xmlns:inkscape="http://www.inkscape.org/namespaces/inkscape"
   xmlns:sodipodi="http://sodipodi.sourceforge.net/DTD/sodipodi-0.dtd"
   xmlns="http://www.w3.org/2000/svg"
   xmlns:svg="http://www.w3.org/2000/svg">
  <sodipodi:namedview
     id="namedview4"
     pagecolor="#ffffff"
     bordercolor="#000000"
     borderopacity="0.25"
     inkscape:showpageshadow="2"
     inkscape:pageopacity="0.0"
     inkscape:pagecheckerboard="0"
     inkscape:deskcolor="#d1d1d1"
     inkscape:zoom="8.0124347"
     inkscape:cx="71.139425"
     inkscape:cy="41.12358"
     inkscape:window-width="1920"
     inkscape:window-height="1008"
     inkscape:window-x="0"
     inkscape:window-y="0"
     inkscape:window-maximized="1"
     inkscape:current-layer="Ebene_2" />
  <defs
     id="defs1">
    <style
       id="style1">.cls-1{fill:#f4c222;}.cls-1,.cls-2{stroke-width:0px;}.cls-2{fill:#256782;}</style>
  </defs>
  <rect
     style="fill:#ffffff;fill-opacity:1;stroke:none;stroke-width:341.329;stroke-dasharray:none;stroke-opacity:1"
     id="rect1"
     width="100"
     height="100"
     x="0"
     y="0"
     rx="15"
     ry="15" />
  <path
     class="cls-1"
     d="m 71.262409,19.093565 h -33.46388 v 8.794673 c 0,13.407614 12.103957,8.253153 12.103957,22.112033 0,14.731328 -12.103957,8.70442 -12.103957,23.716535 v 15.944731 h 33.46388 L 70.981622,71.149604 c 0,0 -3.11875,-8.253154 -8.614167,-11.913422 -5.495417,-3.660269 -8.062619,-6.598512 -6.598511,-11.361875 1.464107,-4.763363 16.335828,-8.614166 15.493465,-28.780742 z"
     id="path1"
     style="fill:#e00370;fill-opacity:1" />
  <path
     class="cls-2"
     d="M 71.262409,90.844857 H 28.552591 c -1.07301,0 -1.955486,-0.872448 -1.955486,-1.955486 V 75.361419 c 0,-8.243125 4.783419,-15.784281 12.495054,-19.665168 1.062982,-0.531491 1.955486,-1.353798 2.57723,-2.36664 0.621744,-1.002813 0.942644,-2.156048 0.942644,-3.32934 0,-2.426808 -1.34377,-4.612941 -3.519874,-5.695979 C 31.380524,40.423404 26.587077,32.882248 26.587077,24.639123 V 11.111171 c 0,-1.07301 0.872447,-1.9554856 1.955486,-1.9554856 h 42.709818 c 1.07301,0 1.955486,0.8724476 1.955486,1.9554856 v 13.527952 c 0,8.243125 -4.783419,15.784281 -12.495054,19.665169 -1.062982,0.531491 -1.955486,1.353798 -2.57723,2.366639 0,0 0,0 0,0 -0.611716,0.992785 -0.942644,2.14602 -0.942644,3.319312 0,2.426808 1.343769,4.612941 3.519874,5.69598 7.711635,3.880887 12.505082,11.422043 12.505082,19.665168 v 13.527952 c 0,1.07301 -0.872447,1.955486 -1.955486,1.955486 z M 30.498049,86.943913 H 69.306923 V 75.361419 c 0,-6.768989 -3.97114,-12.966375 -10.349033,-16.185406 -3.48979,-1.754923 -5.665895,-5.274798 -5.665895,-9.18577 0,-1.895317 0.521463,-3.750522 1.514248,-5.365051 1.002813,-1.644614 2.436836,-2.958299 4.151647,-3.820719 6.377893,-3.209002 10.349033,-9.416417 10.349033,-16.175378 V 13.046601 H 30.498049 v 11.582494 c 0,6.768989 3.97114,12.966376 10.349033,16.185406 3.48979,1.754924 5.665895,5.274798 5.665895,9.18577 0,1.895317 -0.521463,3.76055 -1.514248,5.365051 -1.002813,1.634586 -2.436836,2.9583 -4.151647,3.820719 -6.377893,3.209003 -10.349033,9.416417 -10.349033,16.175378 z M 56.470913,45.648061 h 0.02006 z"
     id="path2"
     style="fill:#2a2a2a;fill-opacity:1" />
  <path
     class="cls-2"
     d="M 72.786685,13.056629 H 27.028315 C 23.428215,13.056629 20.5,10.128414 20.5,6.5283146 20.5,2.9282148 23.428215,0 27.028315,0 h 45.75837 c 3.6001,0 6.528315,2.9282148 6.528315,6.5283146 0,3.6000994 -2.928215,6.5283144 -6.528315,6.5283144 z M 27.028315,3.9009437 c -1.444052,0 -2.627371,1.1732916 -2.627371,2.6273709 0,1.4540793 1.173291,2.6273708 2.627371,2.6273708 h 45.75837 c 1.444052,0 2.627371,-1.1732915 2.627371,-2.6273708 0,-1.4540793 -1.173291,-2.6273709 -2.627371,-2.6273709 z"
     id="path3"
     style="fill:#2a2a2a;fill-opacity:1" />
  <path
     class="cls-2"
     d="m 72.786685,100.00054 h -45.75837 c -3.6001,0 -6.528315,-2.928213 -6.528315,-6.528312 0,-3.6001 2.928215,-6.528315 6.528315,-6.528315 h 45.75837 c 3.6001,0 6.528315,2.928215 6.528315,6.528315 0,3.600099 -2.928215,6.528312 -6.528315,6.528312 z m -45.75837,-9.155683 c -1.444052,0 -2.627371,1.173291 -2.627371,2.627371 0,1.454079 1.173291,2.627371 2.627371,2.627371 h 45.75837 c 1.444052,0 2.627371,-1.173292 2.627371,-2.627371 0,-1.45408 -1.173291,-2.627371 -2.627371,-2.627371 z"
     id="path4"
     style="fill:#2a2a2a;fill-opacity:1" />
</svg>
